<svg width="64" height="64" viewBox="0 0 64 64" fill="none" xmlns="http://www.w3.org/2000/svg">
<path d="M24.3622 35.4076L24.3939 35.3522H24.3306L24.3622 35.4076Z" fill="#FF4438"/>
<path d="M7.98352 35.3522L16.1887 49.5642L17.098 47.9907L9.79957 35.3522H7.98352Z" fill="#FF4438"/>
<path d="M18.914 44.8436L13.4343 35.3522H11.6156L18.0047 46.4171L18.914 44.8436Z" fill="#FF4438"/>
<path d="M20.7301 41.6991L17.0664 35.3522H15.2504L19.8208 43.2727L20.7301 41.6991Z" fill="#FF4438"/>
<path d="M22.5463 38.552L20.6986 35.3522H18.8826L21.637 40.1255L22.5463 38.552Z" fill="#FF4438"/>
<path d="M24.3621 35.4075L24.3305 35.3522H22.5144L23.4527 36.9811L24.3621 35.4075Z" fill="#FF4438"/>
<path d="M38.8668 13.76L17.7622 50.3129H34.8789L55.9835 13.76H38.8668Z" fill="#FF4438"/>
</svg>
