<svg width="140" height="29" fill="none" xmlns="http://www.w3.org/2000/svg"><path d="M12.833 16.962l.025-.044h-.05l.025.044zM0 16.918l6.429 11.136.713-1.233-5.72-9.903H0zm8.564 7.437l-4.293-7.437H2.846l5.006 8.67.712-1.233zm1.423-2.464l-2.87-4.973H5.694l3.58 6.206.713-1.233zm1.423-2.466l-1.447-2.507H8.54l2.158 3.74.712-1.233z" fill="#FF4438"/><path d="M12.833 16.962l-.024-.044h-1.423l.735 1.277.712-1.233zM24.198 0L7.662 28.64h13.411L37.61 0H24.198z" fill="#FF4438"/><path d="M52.691 27.889l-3.2-6.54H47.19v6.54h-3.2V11.495h6.423c3.337 0 5.319 2.28 5.319 5.019 0 2.302-1.405 3.73-2.993 4.304l3.66 7.07h-3.707zm-2.486-13.537H47.19v4.327h3.016c1.405 0 2.326-.897 2.326-2.165 0-1.265-.92-2.162-2.326-2.162zm11.141 13.537V11.495h10.798v2.857H64.55v3.843h6.47v2.857h-6.47v3.984h7.598v2.856H61.346v-.003zm26.801-1.725c-1.311 1.358-2.88 1.865-4.628 1.865-1.795 0-3.27-.644-4.421-1.795-1.659-1.658-1.612-3.707-1.612-6.54s-.047-4.882 1.612-6.54c1.15-1.152 2.58-1.795 4.42-1.795 3.802 0 5.733 2.485 6.17 5.248h-3.223c-.367-1.541-1.311-2.396-2.946-2.396-.874 0-1.588.348-2.049.874-.62.691-.784 1.452-.784 4.605 0 3.153.16 3.937.784 4.628.46.53 1.175.85 2.049.85.968 0 1.748-.343 2.279-.92.53-.597.737-1.335.737-2.19v-.62H83.52V18.77h6.193v2.396c.004 2.373-.414 3.8-1.565 4.999zm21.642 1.725h-2.396l-5.413-16.394h3.317l3.294 10.685 3.293-10.685h3.337l-5.432 16.394zm10.637 0V11.495h3.2V27.89h-3.2zm8.796 0v-2.58l7.001-10.961h-6.701V11.49H140v2.533l-7.024 11.008H140v2.857h-10.778z" fill="#fff"/></svg>