<svg width="824" height="286" fill="none" xmlns="http://www.w3.org/2000/svg"><path fill-rule="evenodd" clip-rule="evenodd" d="M72.235 30.415c0 7.349-5.957 13.306-13.306 13.306-7.35 0-13.307-5.957-13.307-13.306 0-7.349 5.958-13.307 13.307-13.307s13.306 5.958 13.306 13.307zm5.703 0c0 10.498-8.51 19.01-19.01 19.01-10.498 0-19.008-8.511-19.008-19.01 0-10.499 8.51-19.01 19.009-19.01 10.498 0 19.01 8.511 19.01 19.01z" fill="#476A72"/><path d="M65.582 30.415a6.653 6.653 0 11-13.306 0 6.653 6.653 0 0113.306 0zm158.957.143c0 6.903-5.596 12.5-12.5 12.5-6.903 0-12.5-5.597-12.5-12.5 0-6.904 5.597-12.5 12.5-12.5 6.904 0 12.5 5.596 12.5 12.5zm196.518-.143a6.654 6.654 0 11-13.307 0 6.654 6.654 0 0113.307 0z" fill="#CFDCDF"/><path d="M349.771 153.025a6.653 6.653 0 11-13.307 0 6.653 6.653 0 0113.307 0zm142.57 0a6.653 6.653 0 11-13.306 0 6.653 6.653 0 0113.306 0zm219.198-.467c0 6.903-5.596 12.5-12.5 12.5-6.903 0-12.5-5.597-12.5-12.5 0-6.904 5.597-12.5 12.5-12.5 6.904 0 12.5 5.596 12.5 12.5z" fill="#E1E7FB"/><path d="M563.626 30.415a6.653 6.653 0 11-13.307 0 6.653 6.653 0 0113.307 0zm142.57 0a6.653 6.653 0 11-13.307 0 6.653 6.653 0 0113.307 0z" fill="#CFDCDF"/><path fill-rule="evenodd" clip-rule="evenodd" d="M343.118 166.331c7.349 0 13.307-5.957 13.307-13.306 0-7.349-5.958-13.307-13.307-13.307s-13.306 5.958-13.306 13.307 5.957 13.306 13.306 13.306zm0 5.703c10.499 0 19.009-8.511 19.009-19.009 0-10.499-8.51-19.009-19.009-19.009-10.498 0-19.009 8.51-19.009 19.009 0 10.498 8.511 19.009 19.009 19.009z" fill="#7D96E9"/><path fill-rule="evenodd" clip-rule="evenodd" d="M356.425 153.025c0 7.349-5.958 13.306-13.307 13.306s-13.306-5.957-13.306-13.306c0-7.349 5.957-13.307 13.306-13.307 7.349 0 13.307 5.958 13.307 13.307zm5.702 0c0 10.498-8.51 19.009-19.009 19.009-10.498 0-19.009-8.511-19.009-19.009 0-10.499 8.511-19.009 19.009-19.009 10.499 0 19.009 8.51 19.009 19.009zm123.561 13.306c7.349 0 13.307-5.957 13.307-13.306 0-7.349-5.958-13.307-13.307-13.307s-13.306 5.958-13.306 13.307 5.957 13.306 13.306 13.306zm0 5.703c10.499 0 19.009-8.511 19.009-19.009 0-10.499-8.51-19.009-19.009-19.009s-19.009 8.51-19.009 19.009c0 10.498 8.51 19.009 19.009 19.009z" fill="#7D96E9"/><path fill-rule="evenodd" clip-rule="evenodd" d="M498.995 153.025c0 7.349-5.958 13.306-13.307 13.306s-13.306-5.957-13.306-13.306c0-7.349 5.957-13.307 13.306-13.307 7.349 0 13.307 5.958 13.307 13.307zm5.702 0c0 10.498-8.51 19.009-19.009 19.009s-19.009-8.511-19.009-19.009c0-10.499 8.51-19.009 19.009-19.009s19.009 8.51 19.009 19.009z" fill="#7D96E9"/><path fill-rule="evenodd" clip-rule="evenodd" d="M427.71 30.415c0 7.349-5.958 13.306-13.307 13.306s-13.306-5.957-13.306-13.306c0-7.349 5.957-13.307 13.306-13.307 7.349 0 13.307 5.958 13.307 13.307zm5.702 0c0 10.498-8.51 19.01-19.009 19.01s-19.009-8.511-19.009-19.01c0-10.499 8.51-19.01 19.009-19.01s19.009 8.511 19.009 19.01zm136.867 0c0 7.349-5.957 13.306-13.306 13.306-7.349 0-13.307-5.957-13.307-13.306 0-7.349 5.958-13.307 13.307-13.307s13.306 5.958 13.306 13.307zm5.703 0c0 10.498-8.511 19.01-19.009 19.01-10.499 0-19.009-8.511-19.009-19.01 0-10.499 8.51-19.01 19.009-19.01 10.498 0 19.009 8.511 19.009 19.01zm136.867 0c0 7.349-5.957 13.306-13.306 13.306-7.349 0-13.307-5.957-13.307-13.306 0-7.349 5.958-13.307 13.307-13.307s13.306 5.958 13.306 13.307zm5.703 0c0 10.498-8.511 19.01-19.009 19.01-10.499 0-19.009-8.511-19.009-19.01 0-10.499 8.51-19.01 19.009-19.01 10.498 0 19.009 8.511 19.009 19.01zm-483.787 0c0 12.598-10.213 22.811-22.811 22.811s-22.811-10.213-22.811-22.811 10.213-22.811 22.811-22.811 22.811 10.213 22.811 22.81zm7.604 0c0 16.798-13.617 30.415-30.415 30.415s-30.415-13.617-30.415-30.415S195.156 0 211.954 0s30.415 13.617 30.415 30.415z" fill="#476A72"/><path fill-rule="evenodd" clip-rule="evenodd" d="M722.354 153.025c0 12.598-10.213 22.811-22.811 22.811-12.599 0-22.812-10.213-22.812-22.811s10.213-22.811 22.812-22.811c12.598 0 22.811 10.213 22.811 22.811zm7.603 0c0 16.798-13.617 30.415-30.414 30.415-16.798 0-30.415-13.617-30.415-30.415s13.617-30.415 30.415-30.415c16.797 0 30.414 13.617 30.414 30.415z" fill="#7D96E9"/><path d="M0 29.465a.95.95 0 01.95-.951h38.97a.95.95 0 01.95.95v1.901a.95.95 0 01-.95.95H.95a.95.95 0 01-.95-.95v-1.9zm75.087 0a.95.95 0 01.95-.951h109.304a.95.95 0 01.951.95v1.901a.95.95 0 01-.951.95H76.037a.95.95 0 01-.95-.95v-1.9zm163.48 0a.95.95 0 01.95-.951h157.778a.95.95 0 01.95.95v1.901a.95.95 0 01-.95.95H239.517a.95.95 0 01-.95-.95v-1.9zm191.994 0a.95.95 0 01.95-.951h107.403a.95.95 0 01.95.95v1.901a.95.95 0 01-.95.95H431.511a.95.95 0 01-.95-.95v-1.9z" fill="#476A72"/><path d="M359.276 152.074c0-.524.426-.95.951-.95h107.402c.525 0 .951.426.951.95v1.901a.951.951 0 01-.951.951H360.227a.951.951 0 01-.951-.951v-1.901zm142.57 0a.95.95 0 01.95-.95h168.233a.95.95 0 01.95.95v1.901a.95.95 0 01-.95.951H502.796a.95.95 0 01-.95-.951v-1.901z" fill="#7D96E9"/><path d="M572.181 29.465a.95.95 0 01.95-.951h110.254a.95.95 0 01.951.95v1.901a.95.95 0 01-.951.95H573.131a.95.95 0 01-.95-.95v-1.9z" fill="#476A72"/><path fill-rule="evenodd" clip-rule="evenodd" d="M280.863 70.81c0-21.26-17.235-38.494-38.494-38.494v-3.802c23.359 0 42.296 18.936 42.296 42.296v38.49c0 23.276 19.001 42.074 42.275 41.823l.041 3.802c-25.39.273-46.118-20.234-46.118-45.625V70.81z" fill="#7D96E9"/><path d="M176.893 282.455a5.05 5.05 0 01-1.897-.342 4.536 4.536 0 01-1.462-.927 4.192 4.192 0 01-.944-1.387 4.513 4.513 0 01-.325-1.713v-.334c0-.69.108-1.32.325-1.888a4.393 4.393 0 01.911-1.478c.39-.412.852-.733 1.387-.961a4.4 4.4 0 011.746-.342c.651 0 1.23.108 1.737.325.513.212.944.513 1.295.903.356.389.627.86.81 1.411a5.65 5.65 0 01.276 1.813v.986h-6.132c.045.306.134.587.268.844.139.25.314.467.526.651.212.184.454.326.727.426.273.1.571.151.894.151a3.593 3.593 0 001.328-.259c.206-.09.398-.198.576-.326.178-.128.334-.279.468-.451l1.161 1.253a3.383 3.383 0 01-.568.61c-.228.194-.501.37-.818.526a5.317 5.317 0 01-2.289.509zm-.276-7.493a1.77 1.77 0 00-.718.142c-.218.089-.41.22-.577.393a2.324 2.324 0 00-.409.618 3.364 3.364 0 00-.251.802h3.809v-.184a2.177 2.177 0 00-.142-.693 1.6 1.6 0 00-.935-.936 1.97 1.97 0 00-.777-.142zm10.3 1.111l1.988-2.823h2.498l-3.032 4.435 3.141 4.603h-2.507l-2.08-2.957-2.063 2.957h-2.514l3.141-4.603-3.024-4.435h2.497l1.955 2.823zm14.26 1.78c0 .657-.078 1.266-.234 1.829a4.358 4.358 0 01-.677 1.462 3.21 3.21 0 01-1.102.961c-.44.233-.944.35-1.512.35-.485 0-.911-.083-1.279-.25a2.912 2.912 0 01-.96-.702v4.26h-2.323V273.25h2.147l.084.885c.278-.334.607-.593.986-.777.378-.184.821-.275 1.328-.275.573 0 1.08.111 1.52.334.44.217.811.529 1.111.935.301.401.527.886.677 1.454a6.99 6.99 0 01.234 1.871v.176zm-2.323-.176c0-.379-.036-.732-.108-1.061a2.549 2.549 0 00-.326-.86 1.62 1.62 0 00-.568-.577c-.228-.139-.507-.209-.835-.209-.407 0-.741.081-1.003.243a1.595 1.595 0 00-.601.668v3.776c.145.284.345.512.601.685.262.167.602.251 1.019.251.329 0 .607-.073.836-.218a1.65 1.65 0 00.568-.593c.145-.25.25-.54.317-.869.067-.334.1-.687.1-1.06v-.176zm8.864 4.778a5.057 5.057 0 01-1.897-.342 4.52 4.52 0 01-1.461-.927 4.162 4.162 0 01-.944-1.387 4.495 4.495 0 01-.326-1.713v-.334c0-.69.108-1.32.326-1.888.217-.573.52-1.066.91-1.478.39-.412.852-.733 1.387-.961a4.404 4.404 0 011.746-.342c.651 0 1.231.108 1.737.325.513.212.944.513 1.295.903.357.389.627.86.811 1.411.183.546.275 1.15.275 1.813v.986h-6.131c.044.306.133.587.267.844.139.25.315.467.526.651.212.184.454.326.727.426.273.1.571.151.894.151a3.593 3.593 0 001.328-.259c.206-.09.398-.198.576-.326.179-.128.335-.279.468-.451l1.161 1.253a3.347 3.347 0 01-.568.61c-.228.194-.501.37-.818.526a5.317 5.317 0 01-2.289.509zm-.276-7.493a1.77 1.77 0 00-.718.142c-.218.089-.41.22-.577.393a2.324 2.324 0 00-.409.618 3.41 3.41 0 00-.251.802h3.81v-.184a2.233 2.233 0 00-.142-.693 1.596 1.596 0 00-.36-.56 1.6 1.6 0 00-.576-.376 1.97 1.97 0 00-.777-.142zm10.167 5.639c.228 0 .445-.034.651-.1.206-.067.387-.162.543-.284.156-.123.276-.271.359-.443.089-.173.128-.365.117-.577h2.189c.011.468-.086.903-.292 1.304a3.175 3.175 0 01-.827 1.035 4.05 4.05 0 01-1.228.685 4.42 4.42 0 01-1.471.243c-.701 0-1.317-.117-1.846-.351a3.803 3.803 0 01-1.328-.977 4.308 4.308 0 01-.802-1.446 5.834 5.834 0 01-.267-1.787v-.251c0-.635.089-1.228.267-1.779a4.094 4.094 0 01.802-1.454 3.805 3.805 0 011.32-.977c.529-.24 1.141-.359 1.838-.359a4.61 4.61 0 011.545.25c.473.167.88.404 1.22.71.345.301.612.669.802 1.103.189.429.278.91.267 1.445h-2.189a1.525 1.525 0 00-.1-.635 1.438 1.438 0 00-.342-.518 1.64 1.64 0 00-.543-.342 1.774 1.774 0 00-.694-.134c-.367 0-.671.075-.91.226-.24.15-.432.351-.577.601a2.861 2.861 0 00-.3.861 5.857 5.857 0 00-.084 1.002v.251c0 .35.028.69.084 1.019.055.323.153.61.292.86.145.245.337.443.576.593.245.151.554.226.928.226zm10.534-9.565v2.214h3.374v1.712h-3.374v3.885c0 .328.036.604.108.827.078.217.187.392.326.526.139.128.306.22.501.276.201.055.423.083.668.083.179 0 .36-.008.543-.025.19-.017.368-.036.535-.058.173-.028.331-.056.476-.084a5.36 5.36 0 00.385-.084l.225 1.596a3.006 3.006 0 01-.568.251 6.28 6.28 0 01-.693.167 8.133 8.133 0 01-.769.1 7.308 7.308 0 01-.777.042 4.49 4.49 0 01-1.353-.192 2.768 2.768 0 01-1.036-.61 2.816 2.816 0 01-.66-1.053c-.156-.429-.234-.941-.234-1.537v-4.11h-2.063v-1.712h2.063v-2.214h2.323zm10.4 11.419a5.048 5.048 0 01-1.896-.342 4.525 4.525 0 01-1.462-.927 4.177 4.177 0 01-.944-1.387 4.514 4.514 0 01-.326-1.713v-.334c0-.69.109-1.32.326-1.888.217-.573.52-1.066.91-1.478.39-.412.852-.733 1.387-.961a4.407 4.407 0 011.746-.342c.652 0 1.231.108 1.738.325.512.212.944.513 1.294.903.357.389.627.86.811 1.411.183.546.275 1.15.275 1.813v.986h-6.131c.044.306.133.587.267.844.139.25.315.467.526.651.212.184.454.326.727.426.273.1.571.151.894.151a3.606 3.606 0 001.328-.259c.206-.09.398-.198.577-.326.178-.128.334-.279.467-.451l1.162 1.253a3.419 3.419 0 01-.568.61 3.98 3.98 0 01-.819.526 5.33 5.33 0 01-1.044.367c-.385.095-.8.142-1.245.142zm-.276-7.493c-.261 0-.501.047-.718.142-.217.089-.409.22-.577.393a2.324 2.324 0 00-.409.618 3.41 3.41 0 00-.251.802h3.81v-.184a2.204 2.204 0 00-.142-.693 1.608 1.608 0 00-.936-.936 1.97 1.97 0 00-.777-.142zm5.923 2.74c0-.685.078-1.311.234-1.879a4.378 4.378 0 01.702-1.462 3.197 3.197 0 011.111-.944c.44-.223.941-.334 1.503-.334.474 0 .889.086 1.245.259.362.167.682.406.961.718v-4.603h2.33v12.831h-2.096l-.117-.944a3.06 3.06 0 01-1.003.819c-.384.195-.83.292-1.336.292a3.182 3.182 0 01-1.487-.342 3.382 3.382 0 01-1.111-.961 4.522 4.522 0 01-.694-1.445 6.62 6.62 0 01-.242-1.829v-.176zm2.322.176c0 .378.031.732.092 1.06.067.323.173.608.318.853.144.239.331.428.559.568.229.139.507.208.836.208.401 0 .732-.086.994-.259.267-.172.479-.409.635-.71v-3.658a1.778 1.778 0 00-.627-.711c-.262-.172-.59-.259-.986-.259a1.57 1.57 0 00-.843.218 1.613 1.613 0 00-.56.584 2.738 2.738 0 00-.317.869 5.309 5.309 0 00-.101 1.061v.176zm429.506 4.41a2.015 2.015 0 01-.142-.384 5.192 5.192 0 01-.101-.459 3.02 3.02 0 01-.442.392 3.2 3.2 0 01-.56.326 3.23 3.23 0 01-.668.209c-.245.056-.51.083-.794.083a3.91 3.91 0 01-1.278-.2 3.03 3.03 0 01-.994-.56 2.546 2.546 0 01-.652-.852 2.534 2.534 0 01-.234-1.086c0-.952.354-1.687 1.061-2.205.713-.524 1.774-.785 3.183-.785h1.295v-.535c0-.435-.142-.777-.426-1.028-.284-.256-.693-.384-1.228-.384-.473 0-.819.103-1.036.309-.217.201-.326.471-.326.811h-2.322c0-.385.083-.75.251-1.095.172-.345.42-.649.743-.91a3.74 3.74 0 011.195-.619c.473-.155 1.013-.233 1.62-.233.546 0 1.053.066 1.521.2.473.134.882.331 1.228.593.345.262.615.593.81.994.195.396.292.855.292 1.379v3.876c0 .484.031.885.092 1.203.061.317.151.59.267.818v.142h-2.355zm-2.214-1.629a2.42 2.42 0 001.195-.3c.161-.089.3-.19.417-.301.117-.117.209-.234.276-.351v-1.554h-1.186a3.43 3.43 0 00-.928.109 1.677 1.677 0 00-.626.292 1.126 1.126 0 00-.359.451 1.365 1.365 0 00-.117.568c0 .312.108.571.326.777.222.206.556.309 1.002.309zm10.843-.058c.228 0 .446-.034.652-.1.206-.067.387-.162.543-.284.156-.123.275-.271.359-.443.089-.173.128-.365.117-.577h2.189c.011.468-.087.903-.293 1.304a3.15 3.15 0 01-.827 1.035c-.351.29-.76.518-1.228.685a4.41 4.41 0 01-1.47.243c-.702 0-1.317-.117-1.846-.351a3.816 3.816 0 01-1.329-.977 4.306 4.306 0 01-.801-1.446 5.804 5.804 0 01-.268-1.787v-.251c0-.635.089-1.228.268-1.779a4.108 4.108 0 01.801-1.454 3.824 3.824 0 011.32-.977c.529-.24 1.142-.359 1.838-.359a4.62 4.62 0 011.546.25c.473.167.88.404 1.219.71.346.301.613.669.802 1.103.19.429.279.91.268 1.445h-2.189a1.525 1.525 0 00-.1-.635 1.44 1.44 0 00-.343-.518 1.62 1.62 0 00-.543-.342 1.772 1.772 0 00-.693-.134c-.368 0-.671.075-.911.226-.239.15-.431.351-.576.601-.139.251-.24.538-.301.861a5.857 5.857 0 00-.083 1.002v.251c0 .35.027.69.083 1.019.056.323.153.61.292.86.145.245.337.443.577.593.245.151.554.226.927.226zm10.534-9.565v2.214h3.375v1.712h-3.375v3.885c0 .328.036.604.109.827.078.217.186.392.326.526.139.128.306.22.501.276.2.055.423.083.668.083.178 0 .359-.008.543-.025.189-.017.368-.036.535-.058.172-.028.331-.056.476-.084.15-.028.278-.056.384-.084l.226 1.596a3.035 3.035 0 01-.568.251 6.355 6.355 0 01-.694.167 8.111 8.111 0 01-.768.1 7.308 7.308 0 01-.777.042c-.496 0-.947-.064-1.353-.192a2.76 2.76 0 01-1.036-.61 2.816 2.816 0 01-.66-1.053c-.156-.429-.234-.941-.234-1.537v-4.11h-2.064v-1.712h2.064v-2.214h2.322zm11.779 9.983a3.467 3.467 0 01-1.111 1.06c-.429.257-.9.385-1.412.385a3.68 3.68 0 01-1.286-.217 2.5 2.5 0 01-1.003-.685c-.278-.318-.496-.719-.651-1.203-.151-.49-.226-1.078-.226-1.763v-5.346h2.322v5.363c0 .367.025.676.075.927.056.251.143.454.259.61a.99.99 0 00.46.326c.189.066.42.1.693.1.463 0 .838-.087 1.128-.259.29-.178.51-.421.66-.727v-6.34h2.331v9.038h-2.105l-.134-1.269zm10.158 1.269a2.015 2.015 0 01-.142-.384 5.198 5.198 0 01-.1-.459 3.2 3.2 0 01-1.003.718 3.23 3.23 0 01-.668.209c-.245.056-.51.083-.794.083a3.91 3.91 0 01-1.278-.2 3.04 3.04 0 01-.994-.56 2.557 2.557 0 01-.651-.852 2.534 2.534 0 01-.234-1.086c0-.952.353-1.687 1.061-2.205.712-.524 1.773-.785 3.182-.785h1.295v-.535c0-.435-.142-.777-.426-1.028-.284-.256-.693-.384-1.228-.384-.473 0-.819.103-1.036.309-.217.201-.326.471-.326.811h-2.322c0-.385.084-.75.251-1.095.172-.345.42-.649.743-.91a3.74 3.74 0 011.195-.619c.473-.155 1.013-.233 1.62-.233.546 0 1.053.066 1.521.2.473.134.883.331 1.228.593.345.262.615.593.81.994.195.396.292.855.292 1.379v3.876c0 .484.031.885.092 1.203.062.317.151.59.268.818v.142h-2.356zm-2.214-1.629a2.42 2.42 0 001.195-.3c.161-.089.301-.19.417-.301.117-.117.209-.234.276-.351v-1.554h-1.186c-.362 0-.671.036-.927.109a1.682 1.682 0 00-.627.292 1.135 1.135 0 00-.359.451 1.365 1.365 0 00-.117.568c0 .312.109.571.326.777.223.206.557.309 1.002.309zm7.326-11.202h5.054V280.4h2.59v1.888h-7.644V280.4h2.707v-9.047h-2.707v-1.896zm42.732-242.378l.067 1.094c.172-.39.409-.696.71-.919.306-.228.676-.342 1.111-.342.729 0 1.205.32 1.428.96.178-.3.404-.534.677-.701.278-.173.612-.26 1.002-.26.273 0 .527.051.76.151.24.1.446.262.619.485.178.217.314.501.409.852.1.345.15.768.15 1.27v6.449h-2.113V29.66c0-.172-.02-.314-.059-.426a.592.592 0 00-.142-.259.442.442 0 00-.217-.133.717.717 0 00-.242-.042.714.714 0 00-.668.418v6.9h-2.047v-6.466c0-.173-.017-.315-.05-.426a.614.614 0 00-.142-.26.426.426 0 00-.201-.124.738.738 0 00-.25-.042.626.626 0 00-.435.15c-.106.1-.189.234-.25.401v6.767h-2.114v-9.039h1.997zm14.477 9.039a2.034 2.034 0 01-.142-.385 5.142 5.142 0 01-.101-.46 3.03 3.03 0 01-.442.394 3.213 3.213 0 01-.56.325c-.2.09-.423.16-.668.21a3.58 3.58 0 01-.794.083 3.92 3.92 0 01-1.278-.2 3.035 3.035 0 01-.994-.56 2.556 2.556 0 01-.652-.852 2.535 2.535 0 01-.234-1.087c0-.952.354-1.687 1.061-2.205.713-.523 1.774-.785 3.183-.785h1.295v-.535c0-.434-.142-.777-.426-1.027-.284-.256-.693-.384-1.228-.384-.473 0-.819.103-1.036.309-.217.2-.326.47-.326.81h-2.322c0-.384.083-.75.251-1.095.172-.345.42-.648.743-.91a3.73 3.73 0 011.195-.618c.473-.156 1.013-.234 1.62-.234.546 0 1.053.067 1.521.2a3.66 3.66 0 011.228.594c.345.261.615.593.81.994.195.395.292.854.292 1.378v3.876c0 .485.031.886.092 1.203.061.317.151.59.267.819v.142h-2.355zm-2.214-1.63a2.432 2.432 0 001.195-.3c.161-.09.3-.19.417-.3.117-.118.209-.235.276-.352v-1.553h-1.186c-.362 0-.671.036-.928.108a1.673 1.673 0 00-.626.293 1.122 1.122 0 00-.359.45 1.363 1.363 0 00-.117.569c0 .312.108.57.326.777.222.206.556.309 1.002.309zm12.673-.851a.672.672 0 00-.101-.368c-.061-.106-.175-.203-.342-.292a2.883 2.883 0 00-.652-.26 11.663 11.663 0 00-1.036-.233 10.549 10.549 0 01-1.453-.393 4.787 4.787 0 01-1.12-.576 2.726 2.726 0 01-.735-.785 1.987 1.987 0 01-.259-1.02c0-.373.089-.73.268-1.069a2.71 2.71 0 01.768-.894 3.91 3.91 0 011.22-.61 5.402 5.402 0 011.62-.225c.63 0 1.195.075 1.696.225.501.145.925.348 1.27.61.351.256.618.563.802.92.184.356.276.743.276 1.16h-2.323c0-.35-.142-.643-.426-.877-.284-.24-.715-.359-1.295-.359-.54 0-.949.097-1.228.292-.272.195-.409.435-.409.719a.86.86 0 00.084.376.84.84 0 00.292.309c.145.089.34.172.585.25.245.073.557.137.935.193.546.089 1.053.203 1.521.342.468.14.871.32 1.211.543.34.217.604.485.794.802.195.312.292.685.292 1.12 0 .4-.097.77-.292 1.11-.19.335-.463.624-.819.87a4.163 4.163 0 01-1.278.576c-.501.133-1.061.2-1.679.2-.68 0-1.281-.089-1.805-.267a4.246 4.246 0 01-1.303-.694 3.075 3.075 0 01-.802-.977 2.51 2.51 0 01-.267-1.103h2.214c.016.245.083.457.2.635.117.173.267.315.451.426.184.106.393.184.627.234.239.05.484.075.735.075.574 0 1.011-.091 1.311-.275.301-.184.452-.42.452-.71zm8.704-8.772v2.214h3.375v1.712h-3.375v3.885c0 .328.036.604.109.827.078.217.186.393.325.526.14.128.307.22.502.276.2.056.423.084.668.084.178 0 .359-.009.543-.026.189-.016.368-.036.535-.058.172-.028.331-.056.476-.084.15-.027.278-.055.384-.083l.226 1.595a3.016 3.016 0 01-.568.251 6.09 6.09 0 01-.694.167 8.013 8.013 0 01-.768.1 7.334 7.334 0 01-.777.042c-.496 0-.947-.064-1.354-.192a2.761 2.761 0 01-1.035-.61 2.807 2.807 0 01-.66-1.052c-.156-.43-.234-.942-.234-1.538v-4.11h-2.064V27.08h2.064v-2.214h2.322zm10.4 11.42a5.04 5.04 0 01-1.896-.343 4.528 4.528 0 01-1.462-.927 4.185 4.185 0 01-.944-1.387 4.51 4.51 0 01-.325-1.712v-.334c0-.691.108-1.32.325-1.888a4.391 4.391 0 01.911-1.479 4.1 4.1 0 011.387-.96 4.394 4.394 0 011.745-.343c.652 0 1.231.108 1.738.326a3.52 3.52 0 011.295.902c.356.39.626.86.81 1.412.184.545.276 1.15.276 1.812v.986h-6.132c.045.306.134.588.268.844.139.25.314.468.526.651.211.184.454.326.727.427.273.1.57.15.893.15.229 0 .454-.022.677-.067.228-.044.446-.109.652-.192.206-.09.398-.198.576-.326a2.26 2.26 0 00.468-.451l1.161 1.253a3.35 3.35 0 01-.568.61 3.89 3.89 0 01-.819.526c-.311.15-.66.273-1.044.368a5.19 5.19 0 01-1.245.142zm-.275-7.493a1.783 1.783 0 00-1.295.534 2.32 2.32 0 00-.409.618 3.37 3.37 0 00-.251.802h3.809v-.183a2.18 2.18 0 00-.142-.694 1.576 1.576 0 00-.359-.56 1.595 1.595 0 00-.576-.376 1.975 1.975 0 00-.777-.142zm12.656-1.88c.351 0 .674.025.969.075.3.045.543.095.726.15l-.342 2.314a7.407 7.407 0 00-.944-.158 7.472 7.472 0 00-.911-.059c-.651 0-1.175.125-1.57.376-.39.25-.682.61-.877 1.078v5.43h-2.323v-9.039h2.164l.109 1.479a4.09 4.09 0 011.32-1.203 3.304 3.304 0 011.679-.443z" fill="#929292"/><path d="M768.162 147.475v2.214h3.375v1.713h-3.375v3.884c0 .329.036.604.108.827.078.217.187.393.326.526.139.128.307.22.501.276.201.056.424.083.669.083.178 0 .359-.008.543-.025.189-.016.367-.036.534-.058.173-.028.332-.056.477-.084.15-.027.278-.055.384-.083l.225 1.595a2.944 2.944 0 01-.568.251 5.86 5.86 0 01-.693.167 7.78 7.78 0 01-.769.1 7.28 7.28 0 01-.777.042c-.495 0-.946-.064-1.353-.192a2.768 2.768 0 01-1.036-.61 2.803 2.803 0 01-.66-1.052c-.156-.429-.234-.942-.234-1.537v-4.11h-2.063v-1.713h2.063v-2.214h2.323zm5.697 6.65c0-.657.095-1.264.284-1.821.189-.563.465-1.05.827-1.462a3.9 3.9 0 011.337-.969c.529-.234 1.133-.351 1.812-.351.68 0 1.284.117 1.813.351.529.234.975.557 1.337.969.367.412.646.899.835 1.462.189.557.284 1.164.284 1.821v.175c0 .663-.095 1.276-.284 1.838a4.25 4.25 0 01-.827 1.454 3.794 3.794 0 01-1.336.969c-.53.228-1.131.342-1.805.342-.679 0-1.286-.114-1.821-.342a3.884 3.884 0 01-1.345-.969 4.25 4.25 0 01-.827-1.454 5.735 5.735 0 01-.284-1.838v-.175zm2.322.175c0 .379.037.735.109 1.07.072.328.187.618.342.868.156.245.357.44.602.585.251.145.551.217.902.217.34 0 .632-.072.877-.217.245-.145.443-.34.593-.585.156-.25.27-.54.343-.868a5.08 5.08 0 00.108-1.07v-.175a4.86 4.86 0 00-.108-1.044 2.756 2.756 0 00-.343-.869 1.668 1.668 0 00-.593-.593c-.245-.145-.543-.217-.894-.217-.345 0-.64.072-.885.217a1.742 1.742 0 00-.602.593c-.155.25-.27.54-.342.869a4.86 4.86 0 00-.109 1.044v.175zm16.39-.008a6.82 6.82 0 01-.234 1.829 4.347 4.347 0 01-.676 1.462 3.203 3.203 0 01-1.103.961c-.44.234-.944.351-1.512.351-.484 0-.91-.084-1.278-.251a2.905 2.905 0 01-.961-.702v4.261h-2.322v-12.514h2.147l.083.885c.279-.334.607-.593.986-.776.379-.184.822-.276 1.328-.276.574 0 1.081.111 1.521.334.44.217.81.529 1.111.936.301.401.526.885.676 1.453.156.563.234 1.186.234 1.871v.176zm-2.322-.176a4.88 4.88 0 00-.109-1.06 2.533 2.533 0 00-.325-.861 1.617 1.617 0 00-.568-.576c-.229-.14-.507-.209-.836-.209-.406 0-.741.081-1.002.242a1.603 1.603 0 00-.602.668v3.776c.145.284.346.513.602.685.261.167.601.251 1.019.251.328 0 .607-.072.835-.217.234-.145.424-.343.568-.593.145-.251.251-.541.318-.869.067-.334.1-.688.1-1.061v-.176zm5.096-4.427h4.92v7.151h2.448v1.888h-7.368v-1.888h2.573v-5.255h-2.573v-1.896zm2.406-2.314c0-.178.03-.342.092-.493a1.214 1.214 0 01.693-.651c.167-.062.351-.092.551-.092.412 0 .738.117.978.351.245.228.367.523.367.885s-.122.66-.367.894c-.24.228-.566.342-.978.342-.2 0-.384-.03-.551-.092a1.292 1.292 0 01-.418-.25 1.208 1.208 0 01-.275-.393 1.343 1.343 0 01-.092-.501zm11.252 9.665c.228 0 .446-.033.652-.1.206-.067.387-.161.543-.284.156-.123.275-.27.359-.443.089-.172.128-.365.117-.576h2.188c.012.468-.086.902-.292 1.303-.2.401-.476.746-.827 1.036-.351.289-.76.518-1.228.685a4.435 4.435 0 01-1.47.242c-.702 0-1.317-.117-1.846-.351a3.803 3.803 0 01-1.329-.977 4.32 4.32 0 01-.802-1.445 5.84 5.84 0 01-.267-1.788v-.251c0-.634.089-1.228.267-1.779a4.12 4.12 0 01.802-1.453 3.827 3.827 0 011.32-.978c.529-.239 1.142-.359 1.838-.359.557 0 1.072.083 1.546.251.473.167.879.403 1.219.71.345.3.613.668.802 1.102.19.429.279.911.267 1.445h-2.188a1.52 1.52 0 00-.1-.634 1.423 1.423 0 00-.343-.518 1.639 1.639 0 00-.543-.343 1.772 1.772 0 00-.693-.133c-.368 0-.671.075-.911.225-.239.15-.431.351-.576.602-.139.25-.24.537-.301.86a5.857 5.857 0 00-.084 1.002v.251c0 .351.028.691.084 1.019.056.323.153.61.292.861.145.245.337.442.577.593.245.15.554.225.927.225z" fill="#7D96E9"/><path d="M210.053 76.037a1.9 1.9 0 013.802 0v12.356a1.9 1.9 0 01-3.802 0V76.038zm0 23.762a1.9 1.9 0 113.802 0v12.356a1.9 1.9 0 11-3.802 0V99.799zm0 23.762a1.9 1.9 0 113.802 0v12.356a1.9 1.9 0 11-3.802 0v-12.356zm0 23.761a1.9 1.9 0 013.802 0v12.356a1.9 1.9 0 11-3.802 0v-12.356zm0 23.762a1.9 1.9 0 113.802 0v12.356a1.9 1.9 0 11-3.802 0v-12.356zm0 23.761a1.902 1.902 0 013.802 0v12.356a1.9 1.9 0 11-3.802 0v-12.356zm0 23.762a1.9 1.9 0 113.802 0v12.356a1.9 1.9 0 11-3.802 0v-12.356zm0 23.762a1.9 1.9 0 113.802 0v12.356a1.9 1.9 0 11-3.802 0v-12.356zm487.59-47.524a1.9 1.9 0 113.802 0v12.356a1.902 1.902 0 01-3.802 0v-12.356zm-.001 23.762a1.9 1.9 0 113.802 0v12.356a1.902 1.902 0 01-3.802 0v-12.356zm0 23.762a1.9 1.9 0 113.802 0v12.356a1.902 1.902 0 01-3.802 0v-12.356z" fill="#88989C"/></svg>