<svg width="255" height="198" fill="none" xmlns="http://www.w3.org/2000/svg"><path d="M119 141.333V80.667C119 75.9 115.15 72 110.444 72H50.556C45.85 72 42 75.9 42 80.667v60.666C42 146.1 45.85 150 50.556 150h59.888c4.706 0 8.556-3.9 8.556-8.667zM67.239 119.58l8.983 10.963 13.261-17.29a2.131 2.131 0 013.423.044l15.015 20.28c1.069 1.43.042 3.466-1.712 3.466h-51.29c-1.797 0-2.78-2.08-1.668-3.51l10.651-13.866c.813-1.127 2.439-1.17 3.337-.087z" fill="#7899A2"/><ellipse cx="102" cy="91.5" rx="6" ry="5.5" fill="#FF4438"/><path d="M226 141.333V80.667C226 75.9 222.15 72 217.444 72h-59.888C152.85 72 149 75.9 149 80.667v60.666c0 4.767 3.85 8.667 8.556 8.667h59.888c4.706 0 8.556-3.9 8.556-8.667zm-51.761-21.753l8.983 10.963 13.261-17.29a2.132 2.132 0 013.423.044l15.015 20.28c1.069 1.43.042 3.466-1.712 3.466h-51.29c-1.797 0-2.781-2.08-1.668-3.51l10.651-13.866c.813-1.127 2.439-1.17 3.337-.087z" fill="#7899A1"/><ellipse cx="209" cy="91.5" rx="6" ry="5.5" fill="#47FFD3"/><path fill="#E6EDEF" d="M242 169.135L252.79 167l2.136 10.79-10.79 2.136z"/><path stroke="#E6EDEF" stroke-width="2" d="M1.153 155.346l14.62-2.469 2.469 14.62-14.62 2.469z"/><circle cx="232.5" cy="42.5" r="9.5" stroke="#E6EDEF" stroke-width="4"/><circle cx="126.249" cy="182" r="14" stroke="#E6EDEF" stroke-width="4"/><circle cx="137.249" cy="146" r="5" stroke="#E6EDEF" stroke-width="2"/><circle cx="13.249" cy="57" r="4" fill="#E6EDEF"/><path d="M33.99 24.317l28.227-8.382-6.855 28.636L33.99 24.317z" stroke="#E6EDEF" stroke-width="3"/><path d="M124.427 44.648l16.393 6.064-14.356 11.295-2.037-17.36z" fill="#E6EDEF"/><path fill-rule="evenodd" clip-rule="evenodd" d="M62.834 178.12a1 1 0 00-.894-1.095l-.684-.069a1 1 0 00-1.096.895l-.338 3.358a1 1 0 01-1.095.895l-3.358-.338a1 1 0 00-1.095.895l-.069.684a1 1 0 00.895 1.095l3.358.338a1 1 0 01.895 1.095l-.338 3.358a1 1 0 00.895 1.095l.684.069a1 1 0 001.095-.894l.338-3.358a1 1 0 011.095-.895l3.358.338a1 1 0 001.095-.895l.07-.684a1 1 0 00-.896-1.095l-3.358-.338a1 1 0 01-.895-1.095l.338-3.359z" fill="#E6EDEF"/><path d="M84.07 46.113s.479-6.558 8.01-11.297c7.532-4.74 13.652-2.334 13.652-2.334" stroke="#E6EDEF" stroke-width="4" stroke-linecap="round"/></svg>