<svg width="553" height="325" fill="none" xmlns="http://www.w3.org/2000/svg"><g filter="url(#filter0_dd)"><rect x="60" y="12" width="473" height="285" rx="6" fill="#fff"/></g><g filter="url(#filter1_d)"><path d="M60 18a6 6 0 016-6h461a6 6 0 016 6v26H60V18z" fill="#F6F8FA"/></g><path d="M76.952 26.28h1.68v1.064h.028c.187-.392.453-.695.798-.91a2.207 2.207 0 011.19-.322c.103 0 .2.01.294.028.103.019.205.042.308.07v1.624a3.356 3.356 0 00-.42-.084 1.866 1.866 0 00-.392-.042c-.392 0-.71.075-.952.224-.233.14-.415.303-.546.49a1.858 1.858 0 00-.252.56 2.362 2.362 0 00-.056.42V33h-1.68v-6.72zm6.54 3.948c.055.504.251.896.587 1.176.336.28.742.42 1.218.42.42 0 .77-.084 1.05-.252.29-.177.542-.397.756-.658l1.204.91c-.392.485-.83.83-1.316 1.036a3.878 3.878 0 01-1.526.308c-.504 0-.98-.084-1.428-.252a3.425 3.425 0 01-1.162-.714 3.498 3.498 0 01-.784-1.106 3.681 3.681 0 01-.28-1.456c0-.532.094-1.013.28-1.442.196-.439.458-.812.784-1.12a3.425 3.425 0 011.162-.714 4.033 4.033 0 011.428-.252c.467 0 .892.084 1.274.252.392.159.724.392.994.7.28.308.495.69.644 1.148.159.448.238.966.238 1.554v.462h-5.124zm3.443-1.26c-.009-.495-.163-.882-.462-1.162-.298-.29-.714-.434-1.246-.434-.504 0-.905.145-1.204.434-.289.29-.466.677-.532 1.162h3.444zm10.167-2.688v6.118c0 .607-.074 1.153-.224 1.638-.149.495-.382.91-.7 1.246-.308.345-.7.611-1.176.798-.476.187-1.04.28-1.694.28a6.52 6.52 0 01-1.778-.238 3.973 3.973 0 01-1.554-.868l1.008-1.372c.336.308.686.546 1.05.714.364.168.784.252 1.26.252.402 0 .738-.056 1.008-.168.28-.112.5-.266.658-.462.168-.196.285-.434.35-.714.075-.27.112-.574.112-.91v-.49h-.028a2.264 2.264 0 01-.966.742 3.323 3.323 0 01-1.232.238c-.504 0-.961-.089-1.372-.266a3.458 3.458 0 01-1.064-.742 3.253 3.253 0 01-.672-1.092 3.77 3.77 0 01-.238-1.344c0-.495.075-.957.224-1.386a3.2 3.2 0 01.658-1.12c.29-.317.635-.565 1.036-.742.411-.187.878-.28 1.4-.28.476 0 .92.093 1.33.28.411.187.738.485.98.896h.028V26.28h1.596zm-3.584 1.344c-.298 0-.569.051-.812.154a1.786 1.786 0 00-.63.406 1.88 1.88 0 00-.406.63c-.093.243-.14.513-.14.812 0 .27.047.523.14.756a1.961 1.961 0 001.05 1.036c.243.103.504.154.784.154.308 0 .584-.051.826-.154a1.767 1.767 0 001.036-1.036c.094-.243.14-.504.14-.784 0-.588-.177-1.064-.532-1.428-.354-.364-.84-.546-1.456-.546zm47.612 1.796a1.392 1.392 0 00-.48-.44c-.2-.12-.43-.18-.69-.18a1.766 1.766 0 00-.74.13 1.62 1.62 0 00-.9.99c-.08.227-.12.473-.12.74s.04.517.12.75c.08.227.197.423.35.59.153.167.337.297.55.39.22.093.467.137.74.13.26 0 .49-.06.69-.18.207-.12.367-.267.48-.44l.54.41a2.277 2.277 0 01-.79.61c-.293.127-.6.193-.92.2a2.67 2.67 0 01-1.03-.17c-.307-.127-.57-.3-.79-.52a2.246 2.246 0 01-.49-.78 2.841 2.841 0 01-.17-.99c0-.353.057-.68.17-.98.113-.307.277-.57.49-.79.22-.22.483-.39.79-.51.307-.127.65-.187 1.03-.18.32.007.627.077.92.21.293.127.557.327.79.6l-.54.41zm5.424 1.24c0-.26-.043-.503-.13-.73a1.682 1.682 0 00-.35-.59 1.594 1.594 0 00-.56-.39c-.213-.1-.456-.15-.73-.15-.273 0-.52.05-.74.15a1.63 1.63 0 00-.55.39 1.942 1.942 0 00-.35.59c-.08.227-.12.47-.12.73s.04.503.12.73c.087.227.204.423.35.59.154.167.337.3.55.4.22.093.467.14.74.14.274 0 .517-.047.73-.14.22-.1.407-.233.56-.4.154-.167.27-.363.35-.59.087-.227.13-.47.13-.73zm.72 0c0 .353-.063.68-.19.98a2.295 2.295 0 01-1.3 1.3c-.3.12-.633.18-1 .18-.36 0-.693-.06-1-.18-.3-.127-.56-.3-.78-.52-.22-.22-.393-.48-.52-.78-.12-.3-.18-.627-.18-.98s.06-.68.18-.98c.127-.3.3-.56.52-.78.22-.22.48-.39.78-.51.307-.127.64-.19 1-.19.367 0 .7.063 1 .19.307.12.57.29.79.51.22.22.39.48.51.78.127.3.19.627.19.98zm1.198-1.3c0-.173-.007-.347-.02-.52a15.098 15.098 0 00-.03-.52h.71v.71h.02c.16-.273.38-.48.66-.62.287-.14.57-.21.85-.21.127 0 .26.013.4.04.147.027.287.077.42.15.133.067.257.163.37.29.12.127.22.29.3.49.133-.3.343-.537.63-.71.293-.173.597-.26.91-.26.6 0 1.043.16 1.33.48.287.313.43.763.43 1.35V33h-.66v-2.73c0-.473-.083-.837-.25-1.09-.167-.253-.477-.38-.93-.38a1.186 1.186 0 00-1.03.53c-.1.16-.173.343-.22.55-.047.2-.07.41-.07.63V33h-.66v-2.73c0-.473-.083-.837-.25-1.09-.167-.253-.477-.38-.93-.38-.04 0-.133.013-.28.04-.14.027-.287.1-.44.22-.153.12-.293.3-.42.54-.12.24-.18.573-.18 1V33h-.66v-3.64zm8.516 0c0-.173-.007-.347-.02-.52a15.098 15.098 0 00-.03-.52h.71v.71h.02c.16-.273.38-.48.66-.62.286-.14.57-.21.85-.21.126 0 .26.013.4.04.146.027.286.077.42.15.133.067.256.163.37.29.12.127.22.29.3.49.133-.3.343-.537.63-.71.293-.173.596-.26.91-.26.6 0 1.043.16 1.33.48.286.313.43.763.43 1.35V33h-.66v-2.73c0-.473-.084-.837-.25-1.09-.167-.253-.477-.38-.93-.38a1.184 1.184 0 00-1.03.53c-.1.16-.174.343-.22.55-.047.2-.07.41-.07.63V33h-.66v-2.73c0-.473-.084-.837-.25-1.09-.167-.253-.477-.38-.93-.38-.04 0-.134.013-.28.04-.14.027-.287.1-.44.22-.154.12-.294.3-.42.54-.12.24-.18.573-.18 1V33h-.66v-3.64zm12.155.94c0-.447-.133-.807-.4-1.08-.266-.28-.64-.42-1.12-.42-.213 0-.42.043-.62.13-.2.08-.376.19-.53.33-.146.14-.266.3-.36.48-.086.18-.13.367-.13.56h3.16zm-3.18.54c.02.233.077.453.17.66.094.207.217.387.37.54.154.147.33.263.53.35.2.087.417.13.65.13.354 0 .657-.08.91-.24a1.86 1.86 0 00.59-.57l.51.42c-.28.353-.59.607-.93.76-.333.153-.693.23-1.08.23-.346 0-.67-.06-.97-.18a2.347 2.347 0 01-.76-.52 2.522 2.522 0 01-.51-.78c-.12-.3-.18-.627-.18-.98s.06-.68.18-.98c.12-.3.287-.56.5-.78.214-.22.464-.39.75-.51.287-.127.597-.19.93-.19.354 0 .67.063.95.19.28.127.514.297.7.51.194.207.34.453.44.74.1.28.15.58.15.9v.3h-3.9zm5.727-2.52c.013.127.02.253.02.38.007.12.01.243.01.37h.02a1.54 1.54 0 01.28-.35c.113-.107.24-.197.38-.27.14-.08.287-.14.44-.18.16-.047.317-.07.47-.07.6 0 1.043.16 1.33.48.287.313.43.763.43 1.35V33h-.66v-2.59c0-.52-.09-.917-.27-1.19-.18-.28-.513-.42-1-.42-.033 0-.127.013-.28.04-.153.027-.317.1-.49.22-.167.12-.317.3-.45.54-.133.24-.2.573-.2 1V33h-.66v-3.65a7.45 7.45 0 00-.02-.48 14.275 14.275 0 00-.03-.55h.68zm7.346.6h-1.35v2.76c0 .173.017.317.05.43.034.107.08.19.14.25.06.06.13.103.21.13a1.246 1.246 0 00.63-.02c.12-.033.23-.077.33-.13l.03.61a2.117 2.117 0 01-1.29.12.94.94 0 01-.37-.19 1.057 1.057 0 01-.28-.38c-.073-.16-.11-.37-.11-.63v-2.95h-.99v-.6h.99V27h.66v1.32h1.35v.6zm4.541 1.38c0-.447-.134-.807-.4-1.08-.267-.28-.64-.42-1.12-.42-.214 0-.42.043-.62.13-.2.08-.377.19-.53.33-.147.14-.267.3-.36.48-.087.18-.13.367-.13.56h3.16zm-3.18.54c.02.233.076.453.17.66.093.207.216.387.37.54.153.147.33.263.53.35.2.087.416.13.65.13.353 0 .656-.08.91-.24a1.87 1.87 0 00.59-.57l.51.42c-.28.353-.59.607-.93.76-.334.153-.694.23-1.08.23-.347 0-.67-.06-.97-.18a2.326 2.326 0 01-.76-.52 2.487 2.487 0 01-.51-.78c-.12-.3-.18-.627-.18-.98s.06-.68.18-.98c.12-.3.286-.56.5-.78.213-.22.463-.39.75-.51a2.27 2.27 0 01.93-.19c.353 0 .67.063.95.19.28.127.513.297.7.51.193.207.34.453.44.74.1.28.15.58.15.9v.3h-3.9zm5.496-.18c0 .26.04.503.12.73a1.756 1.756 0 00.91.99c.22.093.467.14.74.14.267 0 .514-.047.74-.14.234-.1.434-.233.6-.4.167-.167.297-.363.39-.59.094-.227.14-.47.14-.73s-.046-.503-.14-.73a1.75 1.75 0 00-.99-.98 1.81 1.81 0 00-.74-.15c-.273 0-.52.05-.74.15a1.63 1.63 0 00-.55.39 1.834 1.834 0 00-.36.59c-.08.227-.12.47-.12.73zm4.27 2.34h-.66v-.78h-.02c-.106.16-.233.297-.38.41a2.34 2.34 0 01-.46.28 2.44 2.44 0 01-.98.21c-.366 0-.703-.06-1.01-.18-.3-.127-.56-.3-.78-.52-.22-.22-.393-.48-.52-.78-.12-.3-.18-.627-.18-.98s.06-.68.18-.98c.127-.3.3-.56.52-.78.22-.22.48-.39.78-.51a2.624 2.624 0 011.49-.14c.174.033.34.087.5.16.16.073.314.167.46.28.147.113.274.25.38.41h.02v-3.66h.66V33zm8.487 0h-4.5v-.83l2.82-2.87c.107-.107.213-.22.32-.34.107-.12.203-.247.29-.38.087-.133.157-.273.21-.42.053-.147.08-.3.08-.46 0-.193-.037-.367-.11-.52a1.05 1.05 0 00-.29-.39 1.28 1.28 0 00-.44-.24 1.553 1.553 0 00-.53-.09c-.36 0-.667.1-.92.3-.253.2-.417.47-.49.81l-.76-.08c.1-.527.34-.94.72-1.24.387-.3.853-.45 1.4-.45.287 0 .557.04.81.12.26.073.487.187.68.34.2.153.357.347.47.58.12.227.18.493.18.8 0 .273-.043.523-.13.75-.08.227-.187.44-.32.64s-.287.39-.46.57c-.167.18-.34.357-.52.53l-2.23 2.21h3.72V33zm4.48-2.34c0 .26.04.503.12.73a1.8 1.8 0 00.36.59c.153.167.336.3.55.4.22.093.466.14.74.14.266 0 .513-.047.74-.14a1.807 1.807 0 00.99-.99c.093-.227.14-.47.14-.73s-.047-.503-.14-.73a1.807 1.807 0 00-.39-.59 1.768 1.768 0 00-.6-.39c-.227-.1-.474-.15-.74-.15-.274 0-.52.05-.74.15a1.61 1.61 0 00-.55.39 1.8 1.8 0 00-.36.59c-.08.227-.12.47-.12.73zM207.4 33h-.66v-.78h-.02c-.107.16-.234.297-.38.41a2.37 2.37 0 01-.46.28 2.455 2.455 0 01-.98.21c-.367 0-.704-.06-1.01-.18-.3-.127-.56-.3-.78-.52-.22-.22-.394-.48-.52-.78-.12-.3-.18-.627-.18-.98s.06-.68.18-.98c.126-.3.3-.56.52-.78.22-.22.48-.39.78-.51a2.616 2.616 0 011.49-.14c.173.033.34.087.5.16.16.073.313.167.46.28.146.113.273.25.38.41h.02v-3.66h.66V33zm4.103-2.33c-.167 0-.377.01-.63.03a3.24 3.24 0 00-.72.12c-.227.06-.423.157-.59.29a.677.677 0 00-.24.55c0 .153.03.287.09.4a.91.91 0 00.26.27c.107.067.223.117.35.15.133.027.267.04.4.04.24 0 .447-.04.62-.12.18-.08.33-.187.45-.32.12-.14.207-.3.26-.48.06-.187.09-.383.09-.59v-.34h-.34zm.34-.54v-.12c0-.807-.4-1.21-1.2-1.21-.547 0-1.023.183-1.43.55l-.4-.47c.44-.453 1.1-.68 1.98-.68.227 0 .443.033.65.1.213.067.397.17.55.31.153.133.277.303.37.51.093.207.14.453.14.74v2.09c0 .18.007.37.02.57.02.193.04.353.06.48h-.64a4.827 4.827 0 01-.05-.37 7.43 7.43 0 01-.01-.39h-.02c-.193.313-.423.54-.69.68-.26.133-.58.2-.96.2a2.01 2.01 0 01-.6-.09 1.567 1.567 0 01-.52-.25 1.482 1.482 0 01-.36-.43 1.32 1.32 0 01-.13-.6c0-.38.097-.677.29-.89.2-.22.447-.383.74-.49.3-.107.617-.173.95-.2.34-.027.65-.04.93-.04h.33zm3.926 2.06l1.43-3.87h.8l-2.34 5.9c-.14.36-.32.647-.54.86-.214.213-.524.32-.93.32-.1 0-.204-.003-.31-.01a1.2 1.2 0 01-.3-.06l.07-.64c.14.073.306.11.5.11.233 0 .416-.073.55-.22.133-.147.25-.353.35-.62l.34-.9-1.92-4.74h.83l1.47 3.87zm5.564-2.76a1.23 1.23 0 00-.4-.46 1.06 1.06 0 00-.61-.17c-.114 0-.23.013-.35.04a.977.977 0 00-.31.13.688.688 0 00-.23.21.594.594 0 00-.08.32c0 .22.076.38.23.48.153.1.383.187.69.26l.67.16c.326.073.596.223.81.45.22.22.33.497.33.83 0 .253-.054.473-.16.66-.1.18-.237.33-.41.45a1.76 1.76 0 01-.58.25 2.84 2.84 0 01-.67.08c-.36 0-.697-.067-1.01-.2-.307-.14-.57-.377-.79-.71l.57-.39c.133.213.3.383.5.51.206.127.45.19.73.19.133 0 .266-.013.4-.04.133-.033.25-.08.35-.14a.753.753 0 00.25-.25c.066-.1.1-.217.1-.35 0-.233-.087-.4-.26-.5a2.195 2.195 0 00-.63-.25l-.64-.15c-.08-.02-.19-.053-.33-.1a1.636 1.636 0 01-.4-.21 1.31 1.31 0 01-.33-.36 1.052 1.052 0 01-.14-.56c0-.24.046-.45.14-.63.1-.18.23-.327.39-.44.166-.113.353-.197.56-.25.206-.06.42-.09.64-.09.326 0 .63.063.91.19s.496.343.65.65l-.59.39zm7.221 1.24c-.167 0-.377.01-.63.03a3.24 3.24 0 00-.72.12 1.57 1.57 0 00-.59.29.677.677 0 00-.24.55c0 .153.03.287.09.4a.898.898 0 00.26.27c.106.067.223.117.35.15.133.027.266.04.4.04.24 0 .446-.04.62-.12.18-.08.33-.187.45-.32.12-.14.206-.3.26-.48.06-.187.09-.383.09-.59v-.34h-.34zm.34-.54v-.12c0-.807-.4-1.21-1.2-1.21-.547 0-1.024.183-1.43.55l-.4-.47c.44-.453 1.1-.68 1.98-.68.226 0 .443.033.65.1a1.472 1.472 0 01.92.82c.093.207.14.453.14.74v2.09c0 .18.006.37.02.57.02.193.04.353.06.48h-.64a4.827 4.827 0 01-.05-.37 7.43 7.43 0 01-.01-.39h-.02c-.194.313-.424.54-.69.68-.26.133-.58.2-.96.2a2.01 2.01 0 01-.6-.09 1.558 1.558 0 01-.52-.25 1.482 1.482 0 01-.36-.43 1.32 1.32 0 01-.13-.6c0-.38.096-.677.29-.89.2-.22.446-.383.74-.49.3-.107.616-.173.95-.2.34-.027.65-.04.93-.04h.33zm2.665.47c0 .247.044.48.13.7.094.213.217.403.37.57.16.16.344.29.55.39.214.093.444.14.69.14.24 0 .467-.043.68-.13.22-.087.414-.207.58-.36.167-.16.294-.35.38-.57a1.75 1.75 0 00.13-.74c0-.247-.04-.477-.12-.69-.08-.22-.196-.41-.35-.57a1.594 1.594 0 00-.56-.39c-.22-.1-.466-.15-.74-.15-.246 0-.476.05-.69.15-.206.093-.39.223-.55.39-.153.16-.276.35-.37.57-.086.213-.13.443-.13.69zm-.12 3.34c.194.26.444.467.75.62.314.16.66.24 1.04.24.334 0 .617-.05.85-.15a1.43 1.43 0 00.87-.98c.067-.22.1-.457.1-.71v-.84h-.02c-.213.32-.473.547-.78.68a2.56 2.56 0 01-1.93.02 2.492 2.492 0 01-.77-.49 2.34 2.34 0 01-.52-.76 2.382 2.382 0 01-.19-.95 2.485 2.485 0 01.67-1.72c.214-.22.464-.39.75-.51a2.4 2.4 0 01.96-.19c.14 0 .287.013.44.04.16.027.317.073.47.14.16.067.317.16.47.28.154.113.297.26.43.44h.02v-.78h.66v4.64c0 .253-.033.523-.1.81-.06.287-.183.55-.37.79-.18.24-.433.44-.76.6-.326.16-.753.24-1.28.24-.466 0-.883-.077-1.25-.23a2.91 2.91 0 01-1-.71l.49-.52zm9.764-3.28c0-.26-.044-.503-.13-.73a1.603 1.603 0 00-.91-.98c-.214-.1-.457-.15-.73-.15-.274 0-.52.05-.74.15a1.61 1.61 0 00-.55.39 1.903 1.903 0 00-.35.59c-.08.227-.12.47-.12.73s.04.503.12.73c.086.227.203.423.35.59.153.167.336.3.55.4.22.093.466.14.74.14.273 0 .516-.047.73-.14.22-.1.406-.233.56-.4.153-.167.27-.363.35-.59.086-.227.13-.47.13-.73zm.72 0c0 .353-.064.68-.19.98a2.295 2.295 0 01-1.3 1.3c-.3.12-.634.18-1 .18-.36 0-.694-.06-1-.18-.3-.127-.56-.3-.78-.52-.22-.22-.394-.48-.52-.78-.12-.3-.18-.627-.18-.98s.06-.68.18-.98c.126-.3.3-.56.52-.78.22-.22.48-.39.78-.51a2.59 2.59 0 011-.19c.366 0 .7.063 1 .19.306.12.57.29.79.51.22.22.39.48.51.78.126.3.19.627.19.98z" fill="#000"/><rect x="104.5" y="21.5" width="27" height="17" rx="2.5" stroke="#D3D3D3"/><path d="M115.309 30.66c0-.26-.043-.503-.13-.73a1.682 1.682 0 00-.35-.59 1.594 1.594 0 00-.56-.39c-.213-.1-.456-.15-.73-.15-.273 0-.523.05-.75.15a1.796 1.796 0 00-.59.39 1.807 1.807 0 00-.39.59c-.093.227-.14.47-.14.73s.047.503.14.73c.094.227.224.423.39.59.167.167.364.3.59.4.227.093.477.14.75.14.274 0 .517-.047.73-.14.22-.1.407-.233.56-.4.154-.167.27-.363.35-.59.087-.227.13-.47.13-.73zm-4.27-5.22h.66v3.66h.02c.107-.16.234-.297.38-.41.147-.113.3-.207.46-.28.16-.073.324-.127.49-.16a2.636 2.636 0 011.49.14c.307.12.57.29.79.51.22.22.39.48.51.78.127.3.19.627.19.98s-.063.68-.19.98a2.295 2.295 0 01-1.3 1.3 2.67 2.67 0 01-1.49.13 2.228 2.228 0 01-.49-.16 2.37 2.37 0 01-.46-.28 1.737 1.737 0 01-.38-.41h-.02V33h-.66v-7.56zm10.124 5.22c0-.26-.044-.503-.13-.73a1.603 1.603 0 00-.91-.98c-.214-.1-.457-.15-.73-.15-.274 0-.52.05-.74.15a1.61 1.61 0 00-.55.39 1.903 1.903 0 00-.35.59c-.08.227-.12.47-.12.73s.04.503.12.73c.086.227.203.423.35.59.153.167.336.3.55.4.22.093.466.14.74.14.273 0 .516-.047.73-.14.22-.1.406-.233.56-.4.153-.167.27-.363.35-.59.086-.227.13-.47.13-.73zm.72 0c0 .353-.064.68-.19.98a2.295 2.295 0 01-1.3 1.3c-.3.12-.634.18-1 .18-.36 0-.694-.06-1-.18-.3-.127-.56-.3-.78-.52-.22-.22-.394-.48-.52-.78-.12-.3-.18-.627-.18-.98s.06-.68.18-.98c.126-.3.3-.56.52-.78.22-.22.48-.39.78-.51a2.59 2.59 0 011-.19c.366 0 .7.063 1 .19.306.12.57.29.79.51.22.22.39.48.51.78.126.3.19.627.19.98zm3.617-1.74h-1.35v2.76c0 .173.017.317.05.43.034.107.08.19.14.25.06.06.13.103.21.13a1.246 1.246 0 00.63-.02c.12-.033.23-.077.33-.13l.03.61a2.117 2.117 0 01-1.29.12.94.94 0 01-.37-.19 1.057 1.057 0 01-.28-.38c-.073-.16-.11-.37-.11-.63v-2.95h-.99v-.6h.99V27h.66v1.32h1.35v.6z" fill="#000"/><path fill="#E8E8E8" d="M75 64h255v8H75zm0 166h109v8H75zm0 21h324v8H75zm0 21h213v8H75zm0-187h132v8H75z"/><circle cx="86.5" cy="129.5" r="9.5" fill="#F53E72"/><circle cx="86.5" cy="161.5" r="9.5" fill="#49A5FA"/><circle cx="86.5" cy="193.5" r="9.5" fill="#00303C"/><circle cx="109.5" cy="161.5" r="9.5" fill="#49A5FA"/><circle cx="132.5" cy="161.5" r="9.5" fill="#49A5FA"/><circle cx="155.5" cy="161.5" r="9.5" fill="#49A5FA"/><circle cx="178.5" cy="161.5" r="9.5" fill="#49A5FA"/><circle cx="201.5" cy="161.5" r="9.5" fill="#49A5FA"/><circle cx="224.5" cy="161.5" r="9.5" fill="#49A5FA"/><circle cx="247.5" cy="161.5" r="9.5" fill="#49A5FA"/><circle cx="270.5" cy="161.5" r="9.5" fill="#49A5FA"/><circle cx="293.5" cy="161.5" r="9.5" fill="#49A5FA"/><circle cx="316.5" cy="161.5" r="9.5" fill="#49A5FA"/><circle cx="339.5" cy="161.5" r="9.5" fill="#49A5FA"/><circle cx="362.5" cy="161.5" r="9.5" fill="#49A5FA"/><circle cx="109.5" cy="129.5" r="9.5" fill="#F53E72"/><circle cx="132.5" cy="129.5" r="9.5" fill="#F53E72"/><circle cx="155.5" cy="129.5" r="9.5" fill="#F53E72"/><rect y="12" width="50" height="50" rx="6" fill="#fff"/><path d="M18.967 40.138l.025-.044h-.05l.025.044zM6 40.094l6.496 11.251.72-1.245-5.778-10.006H6zm8.653 7.514l-4.338-7.514h-1.44l5.059 8.76.72-1.246zm1.438-2.489l-2.9-5.025h-1.438l3.618 6.27.72-1.245zm1.438-2.492l-1.463-2.533H14.63l2.18 3.779.72-1.246zm1.437-2.489l-.025-.044h-1.437l.742 1.29.72-1.246zM30.45 23L13.741 51.938h13.55L44 23H30.45z" fill="#FF4438"/><circle cx="516" cy="29" r="6" fill="#CFD3D7"/><circle cx="498" cy="29" r="6" fill="#CFD3D7"/><circle cx="480" cy="29" r="6" fill="#CFD3D7"/><defs><filter id="filter0_dd" x="40" y="0" width="513" height="325" filterUnits="userSpaceOnUse" color-interpolation-filters="sRGB"><feFlood flood-opacity="0" result="BackgroundImageFix"/><feColorMatrix in="SourceAlpha" values="0 0 0 0 0 0 0 0 0 0 0 0 0 0 0 0 0 0 127 0"/><feOffset dy="8"/><feGaussianBlur stdDeviation="10"/><feColorMatrix values="0 0 0 0 0 0 0 0 0 0 0 0 0 0 0 0 0 0 0.12 0"/><feBlend in2="BackgroundImageFix" result="effect1_dropShadow"/><feColorMatrix in="SourceAlpha" values="0 0 0 0 0 0 0 0 0 0 0 0 0 0 0 0 0 0 127 0"/><feOffset dy="2"/><feGaussianBlur stdDeviation="3"/><feColorMatrix values="0 0 0 0 0 0 0 0 0 0 0 0 0 0 0 0 0 0 0.06 0"/><feBlend in2="effect1_dropShadow" result="effect2_dropShadow"/><feBlend in="SourceGraphic" in2="effect2_dropShadow" result="shape"/></filter><filter id="filter1_d" x="60" y="12" width="473" height="33" filterUnits="userSpaceOnUse" color-interpolation-filters="sRGB"><feFlood flood-opacity="0" result="BackgroundImageFix"/><feColorMatrix in="SourceAlpha" values="0 0 0 0 0 0 0 0 0 0 0 0 0 0 0 0 0 0 127 0"/><feOffset dy="1"/><feColorMatrix values="0 0 0 0 0.833333 0 0 0 0 0.833333 0 0 0 0 0.833333 0 0 0 1 0"/><feBlend in2="BackgroundImageFix" result="effect1_dropShadow"/><feBlend in="SourceGraphic" in2="effect1_dropShadow" result="shape"/></filter></defs></svg>