<svg width="198" height="176" fill="none" xmlns="http://www.w3.org/2000/svg"><path d="M134.137 81.445C130.794 64.626 115.897 52 98 52a36.892 36.892 0 00-32.696 19.695C50.505 73.255 39 85.686 39 100.75 39 116.886 52.226 130 68.5 130h63.917c13.57 0 24.583-10.92 24.583-24.375 0-12.87-10.079-23.302-22.863-24.18zm-42.48 30.469a4.926 4.926 0 01-6.932 0L74.4 101.725a4.826 4.826 0 010-6.874 4.926 4.926 0 016.932 0l6.835 6.777 22.026-21.84a4.926 4.926 0 016.933 0 4.827 4.827 0 010 6.873l-25.469 25.253z" fill="#7899A1"/><path fill="#E6EDEF" d="M144.755 5.663L173.337.755l4.908 28.582-28.582 4.908z"/><path stroke="#E6EDEF" stroke-width="4" d="M8.125 123.405l24.337 5.72-5.721 24.337-24.337-5.72z"/><circle cx="29.5" cy="29.5" r="17.5" stroke="#E6EDEF" stroke-width="4"/><circle cx="153" cy="72" r="7" stroke="#E6EDEF" stroke-width="2"/><circle cx="68" cy="31" r="5" stroke="#E6EDEF" stroke-width="2"/><circle cx="179.5" cy="148.5" r="8.5" fill="#E6EDEF"/><circle cx="194" cy="87" r="4" fill="#E6EDEF"/><path d="M50.384 168.163L57.038 152l10.768 14.757-17.422 1.406z" fill="#E6EDEF"/><path fill-rule="evenodd" clip-rule="evenodd" d="M38.308 63.916a1 1 0 00-.563-1.297l-1.488-.588a1 1 0 00-1.298.563l-1.909 4.837a1 1 0 01-1.297.563l-4.837-1.91a1 1 0 00-1.297.564l-.588 1.488a1 1 0 00.563 1.297l4.837 1.91a1 1 0 01.563 1.297l-1.91 4.837a1 1 0 00.564 1.297l1.488.588a1 1 0 001.297-.563l1.91-4.837a1 1 0 011.297-.563l4.837 1.91a1 1 0 001.297-.564l.587-1.488a1 1 0 00-.563-1.297l-4.836-1.91a1 1 0 01-.563-1.297l1.909-4.837zm119.482 61.519a1 1 0 00-1.225-.707l-.361.096a1 1 0 00-.707 1.225l.711 2.654a1 1 0 01-.707 1.225l-2.653.711a.999.999 0 00-.707 1.224l.096.361a1 1 0 001.225.707l2.654-.711a1 1 0 011.224.707l.711 2.654a1 1 0 001.225.707l.361-.096a1 1 0 00.707-1.225l-.711-2.654a1 1 0 01.707-1.225l2.654-.711a1 1 0 00.707-1.224l-.097-.361a.999.999 0 00-1.224-.707l-2.654.711a1 1 0 01-1.225-.707l-.711-2.654z" fill="#E6EDEF"/><path d="M143.077 149s-1.871 6.304-10.242 9.322c-8.372 3.018-13.835-.641-13.835-.641" stroke="#E6EDEF" stroke-width="4" stroke-linecap="round"/></svg>