<svg width="215" height="172" fill="none" xmlns="http://www.w3.org/2000/svg"><path d="M155 146.882c6.6 0 11.94-5.453 11.94-12.117l.06-66.647C167 61.453 161.6 56 155 56H59c-6.6 0-12 5.453-12 12.118v66.647c0 6.664 5.4 12.117 12 12.117H35C35 153.547 40.4 159 47 159h120c6.6 0 12-5.453 12-12.118h-24zM65 68.118h84c3.3 0 6 2.726 6 6.059v54.529c0 3.332-2.7 6.059-6 6.059H65c-3.3 0-6-2.727-6-6.059v-54.53c0-3.332 2.7-6.058 6-6.058zm42 84.823c-3.3 0-6-2.726-6-6.059 0-3.332 2.7-6.058 6-6.058s6 2.726 6 6.058c0 3.333-2.7 6.059-6 6.059z" fill="#7899A1"/><path fill="#E6EDEF" d="M73 39.135L83.79 37l2.136 10.79-10.79 2.136z"/><path stroke="#E6EDEF" stroke-width="2" d="M8.773 154.162l15.065-5.388 5.389 15.065-15.066 5.388z"/><circle cx="185.5" cy="40.5" r="17.5" stroke="#E6EDEF" stroke-width="4"/><circle cx="129" cy="34" r="6" stroke="#E6EDEF" stroke-width="2"/><circle cx="27" cy="72" r="7" stroke="#E6EDEF" stroke-width="2"/><circle cx="39" cy="120" r="4" fill="#E6EDEF"/><path d="M42.356 14.082l-8.064 33.69L9.148 23.943l33.208-9.86z" fill="#E6EDEF"/><path d="M101.931 101.825l.023-.04h-.046l.023.04zm-11.949-.04l5.986 10.368.664-1.148-5.325-9.22h-1.325zm7.975 6.924l-3.998-6.924h-1.327l4.661 8.072.664-1.148zm1.324-2.294l-2.672-4.63h-1.325l3.334 5.778.663-1.148zm1.325-2.296l-1.348-2.334h-1.325l2.01 3.482.663-1.148zm1.325-2.294l-.023-.04h-1.325l.685 1.188.663-1.148zm10.582-15.792l-15.397 26.666h12.488L125 86.033h-12.487z" fill="#FF4438"/><path d="M198.178 121.648l16.394 6.064-14.357 11.296-2.037-17.36z" fill="#E6EDEF"/><path fill-rule="evenodd" clip-rule="evenodd" d="M197.206 155.287a1 1 0 00-.869-1.115l-1.337-.167a1 1 0 00-1.115.869l-.58 4.659a1 1 0 01-1.115.869l-4.659-.579a1 1 0 00-1.116.869l-.166 1.337a1 1 0 00.869 1.116l4.659.579a.998.998 0 01.868 1.116l-.579 4.658a1 1 0 00.869 1.116l1.337.166a1 1 0 001.116-.869l.579-4.658a.999.999 0 011.116-.869l4.659.579a1 1 0 001.116-.869l.166-1.337a1 1 0 00-.869-1.116l-4.659-.579a1 1 0 01-.869-1.116l.579-4.659z" fill="#E6EDEF"/><path d="M194.604 80.82s2.07 3.593-.184 8.73c-2.254 5.139-6.299 6.048-6.299 6.048" stroke="#E6EDEF" stroke-width="4" stroke-linecap="round"/></svg>